<?xml version="1.0" encoding="UTF-8"?>
<svg width="42px" height="42px" viewBox="0 0 42 42" version="1.1" xmlns="http://www.w3.org/2000/svg" xmlns:xlink="http://www.w3.org/1999/xlink">
    <!-- Generator: Sketch 47.1 (45422) - http://www.bohemiancoding.com/sketch -->
    <title>facebook</title>
    <desc>Created with Sketch.</desc>
    <defs>
        <polygon id="path-1" points="41.7638535 42 0.000146482338 42 0.000146482338 0.236856338 41.7638535 0.236856338"></polygon>
    </defs>
    <g id="Page-1" stroke="none" stroke-width="1" fill="none" fill-rule="evenodd">
        <g id="screenshot" transform="translate(-554.000000, -672.000000)">
            <g id="facebook" transform="translate(554.000000, 672.000000)">
                <g id="Group-3">
                    <mask id="mask-2" fill="white">
                        <use xlink:href="#path-1"></use>
                    </mask>
                    <g id="Clip-2"></g>
                    <path d="M20.8821634,2.60305352 C15.8865296,2.60305352 11.2073746,4.54096901 7.70776901,8.06009577 C4.23655775,11.5502366 2.33945915,16.1850254 2.36667042,21.1120394 C2.36667042,31.3280958 10.6726141,39.6340394 20.8821634,39.6340394 C31.0917127,39.6340394 39.3976563,31.3280958 39.3976563,21.1185465 C39.3976563,10.9089972 31.0917127,2.60305352 20.8821634,2.60305352 M20.8821634,42.0002366 C9.36765634,42.0002366 0.000473239437,32.632462 0.000473239437,21.1185465 C-0.0302873239,15.5638986 2.11171268,10.3310535 6.03013521,6.39133521 C9.97695211,2.42263099 15.2517972,0.236856338 20.8821634,0.236856338 C32.3960789,0.236856338 41.7638535,9.60403944 41.7638535,21.1185465 C41.7638535,32.632462 32.3960789,42.0002366 20.8821634,42.0002366" id="Fill-1" fill="#3893FF" mask="url(#mask-2)"></path>
                </g>
                <path d="M18.2413793,17.2360743 L16,17.2360743 L16,21.0291777 L18.2413793,21.0291777 L18.2413793,32 L22.6091954,32 L22.6091954,20.9124668 L25.6551724,20.9124668 L26,17.2360743 L22.6091954,17.2360743 L22.6091954,15.193634 C22.6091954,14.2599469 22.8390805,13.9098143 23.6436782,13.9098143 L26,13.9098143 L26,10 L22.954023,10 C19.6781609,10 18.2413793,11.4588859 18.2413793,14.2599469 C18.2413793,16.7108753 18.2413793,17.2360743 18.2413793,17.2360743" id="Fill-4" fill="#3893FF"></path>
            </g>
        </g>
    </g>
</svg>